# xmcd
#
# Track frame offsets:
#	150
#	10690
#	22729
#	41086
#	52476
#	64131
#	75960
#	87060
#	96370
#	109545
#	124967
#	136896
#	147673
#	164190
#	176803
#	189384
#	201184
#	213148
#	225381
#	237831
#	252313
#	272047
#	280741
#	294016
#	305704
#
# Disc length: 4225 seconds
#
# Revision: 0
# Processed by: cddbd v1.5.2PL0 Copyright (c) Steve Scherf et al.
# Submitted via: EasyCDDAExtractor 12.0.1.1
#
DISCID=65107f19
DTITLE=Johnny Cash - Complete Recording Sessions [Cd 12] 1963 Sessions
DYEAR=2005
DGENRE=Country
TTITLE0=Single Girl, Married Girl
TTITLE1=I'm Working On A Building
TTITLE2=The Banks Of The Ohio
TTITLE3=The Wabash Cannonball
TTITLE4=Gathering Flowers
TTITLE5=When The Roses Bloom Again
TTITLE6=Keep On The Sunny Side
TTITLE7=Lonesome Valley
TTITLE8=My Clinch Mountain Home
TTITLE9=Brown Eyes
TTITLE10=Worried Man Blues
TTITLE11=Brown Hearted Lover
TTITLE12=Christmas As I Knew It
TTITLE13=The Matador (M,vocal Overdub)
TTITLE14=El Matador (Vocal Overdub)
TTITLE15=Fuego D'amor (Vocal Overdub)
TTITLE16=Still In Town (Vocal Overdub)
TTITLE17=Here Was A Man
TTITLE18=Ringing The Bells For Jim
TTITLE19=We Are The Shepherds
TTITLE20=The Ballad Of The Harp Weaver
TTITLE21=Who Kept The Sheep
TTITLE22=Bad News
TTITLE23=I Still Miss Someone
TTITLE24=Shifting Whispering Sands,pt.2
EXTD=
EXTT0=
EXTT1=
EXTT2=
EXTT3=
EXTT4=
EXTT5=
EXTT6=
EXTT7=
EXTT8=
EXTT9=
EXTT10=
EXTT11=
EXTT12=
EXTT13=
EXTT14=
EXTT15=
EXTT16=
EXTT17=
EXTT18=
EXTT19=
EXTT20=
EXTT21=
EXTT22=
EXTT23=
EXTT24=
PLAYORDER=
